<?xml version="1.0" encoding="utf-8"?>
<!-- Generator: Adobe Illustrator 17.1.0, SVG Export Plug-In . SVG Version: 6.00 Build 0)  -->
<!DOCTYPE svg PUBLIC "-//W3C//DTD SVG 1.1//EN" "http://www.w3.org/Graphics/SVG/1.1/DTD/svg11.dtd">
<svg version="1.1" id="Layer_1" xmlns="http://www.w3.org/2000/svg" xmlns:xlink="http://www.w3.org/1999/xlink" x="0px" y="0px"
	 width="159.4px" height="178.3px" viewBox="0 0 159.4 178.3" enable-background="new 0 0 159.4 178.3" xml:space="preserve">
<g>
	<g>
		<g>
			<g>
				<g>
					<g>
						<path fill="#008184" d="M118.8,21.5l32.1,99c2.3,7-2.6,11.3-9.5,13.6l-82,26.6c-7,2.3-14.4-1.5-16.7-8.5L8.6,47.1
							c-2.3-7,1.5-14.5,8.5-16.7L90.2,6.6"/>
					</g>
					<g>
						<polygon fill="#0CA1A6" points="118.8,21.5 90.2,6.6 97.5,28.5 						"/>
					</g>
					<polyline fill="#005C5F" points="97.5,28.5 118.8,21.5 125.7,42.9 					"/>
				</g>
			</g>
		</g>
		<g>
			<g>
				<g>
					<g>
						<g>
							<path fill="#0CA1A6" d="M136.1,57.6v104.1c0,7.3-5.9,9.9-13.3,9.9H36.6c-7.3,0-13.3-5.9-13.3-13.3V47.9
								c0-7.3,5.9-13.3,13.3-13.3h76.9"/>
						</g>
						<g>
							<polygon fill="#7FCBCD" points="136.1,57.6 113.5,34.6 113.6,57.6 							"/>
						</g>
						<polyline fill="#006D70" points="113.6,57.6 136.1,57.6 136.1,80.1 						"/>
					</g>
				</g>
			</g>
		</g>
	</g>
	<g>
		<path fill="#FFFFFF" d="M115.4,105.8c0-9.3-7.9-16.9-17.5-16.9l0,0c-0.9,0-1.8,0.1-2.7,0.2l0,0c-7.5,1.1-12.5,6.5-15.4,10.6l0,0
			c-2.8-4.1-7.9-9.6-15.4-10.6l0,0c-0.9-0.1-1.8-0.2-2.7-0.2l0,0c-9.7,0-17.5,7.6-17.5,16.9l0,0c0,9.3,7.9,16.9,17.5,16.9l0,0
			c0.9,0,1.8-0.1,2.7-0.2l0,0c7.5-1.1,12.5-6.5,15.4-10.6l0,0c2.8,4.2,7.8,9.6,15.4,10.6l0,0c0.9,0.1,1.8,0.2,2.7,0.2l0,0
			C107.5,122.7,115.4,115.2,115.4,105.8L115.4,105.8z M63.6,116.6c-0.6,0.1-1.2,0.1-1.9,0.1l0,0c-6.4,0-11.5-4.9-11.5-10.9l0,0
			c0-6,5.2-10.9,11.5-10.9l0,0c0.6,0,1.2,0.1,1.9,0.1l0,0c7.1,1,11.4,8,12.9,10.8l0,0C75,108.6,70.7,115.6,63.6,116.6L63.6,116.6z
			 M83.1,105.8C84.6,103,88.9,96,96,95l0,0c0.6-0.1,1.2-0.1,1.9-0.1l0,0c6.4,0,11.5,4.9,11.5,10.9l0,0c0,6-5.2,10.9-11.5,10.9l0,0
			c-0.6,0-1.2,0-1.9-0.1l0,0C88.9,115.6,84.6,108.6,83.1,105.8L83.1,105.8z"/>
		<polygon fill="#FFFFFF" points="57.9,107.6 68.4,107.6 68.4,107.6 68.4,104.2 68.4,104.2 57.9,104.2 57.9,104.2 		"/>
		<polygon fill="#FFFFFF" points="100,107.6 103.6,107.6 103.6,107.6 103.6,104.2 103.6,104.2 100,104.2 100,104.2 100,100.6 
			100,100.6 96.6,100.6 96.6,100.6 96.6,104.2 96.6,104.2 93.1,104.2 93.1,104.2 93.1,107.6 93.1,107.6 96.6,107.6 96.6,107.6 
			96.6,111.1 96.6,111.1 100,111.1 100,111.1 		"/>
		<path fill="#FFFFFF" d="M112.6,89.5h-0.4l0,0v-0.6l0,0h1.4l0,0v0.6l0,0h-0.4l0,0v2.2l0,0h-0.6l0,0V89.5L112.6,89.5z M113.7,88.9
			h0.7l0,0l0.3,1l0,0l0.3,1.1l0,0l0.3-1.2l0,0l0.3-0.9l0,0h0.7l0,0v2.8l0,0h-0.6l0,0v-1.5l0,0l-0.2,0.7l0,0l-0.2,0.8l0,0h-0.7l0,0
			l-0.2-0.7l0,0l-0.3-0.9l0,0v1.6l0,0h-0.5l0,0L113.7,88.9L113.7,88.9z"/>
	</g>
</g>
</svg>
